<svg xmlns="http://www.w3.org/2000/svg" viewBox="0 0 32 32">
  <defs>
    <linearGradient id="bgGrad" x1="0%" y1="0%" x2="100%" y2="100%">
      <stop offset="0%" style="stop-color:#A855F7"/>
      <stop offset="50%" style="stop-color:#7C3AED"/>
      <stop offset="100%" style="stop-color:#3B82F6"/>
    </linearGradient>
  </defs>

  <!-- Background -->
  <rect width="32" height="32" rx="7" fill="url(#bgGrad)"/>

  <!-- Simplified brain shape -->
  <g fill="white" opacity="0.95">
    <!-- Left side -->
    <path d="M10 8 C6 8 5 12 5 16 C5 20 6 24 10 25 C8 26 8 27 10 28 L12 26 C10 25 10 23 12 21 C8 20 7 17 7 14 C7 11 8 9 12 8 Z"/>

    <!-- Right side -->
    <path d="M22 8 C26 8 27 12 27 16 C27 20 26 24 22 25 C24 26 24 27 22 28 L20 26 C22 25 22 23 20 21 C24 20 25 17 25 14 C25 11 24 9 20 8 Z"/>

    <!-- Center -->
    <ellipse cx="16" cy="16" rx="4" ry="5" opacity="0.9"/>

    <!-- Nodes -->
    <circle cx="12" cy="11" r="1.5"/>
    <circle cx="20" cy="11" r="1.5"/>
    <circle cx="16" cy="22" r="1"/>
  </g>
</svg>
